<svg width="202" height="96" viewBox="0 0 202 96" fill="none" xmlns="http://www.w3.org/2000/svg">
<path d="M31.6406 43.2344V53.7461C29.8359 51.543 28.2188 50.0312 26.7891 49.2109C25.3828 48.3672 23.7305 47.9453 21.832 47.9453C18.8555 47.9453 16.3828 48.9883 14.4141 51.0742C12.4453 53.1602 11.4609 55.7734 11.4609 58.9141C11.4609 62.125 12.4102 64.7617 14.3086 66.8242C16.2305 68.8867 18.6797 69.918 21.6562 69.918C23.5547 69.918 25.2305 69.5078 26.6836 68.6875C28.0898 67.8906 29.7422 66.3438 31.6406 64.0469V74.4883C28.4297 76.1523 25.2188 76.9844 22.0078 76.9844C16.7109 76.9844 12.2812 75.2734 8.71875 71.8516C5.15625 68.4062 3.375 64.1289 3.375 59.0195C3.375 53.9102 5.17969 49.5977 8.78906 46.082C12.3984 42.5664 16.8281 40.8086 22.0781 40.8086C25.4531 40.8086 28.6406 41.6172 31.6406 43.2344ZM47.2148 94.6328H39.3047V41.7578H47.2148V45.4844C50.332 42.3672 53.8711 40.8086 57.832 40.8086C62.543 40.8086 66.4219 42.543 69.4688 46.0117C72.5625 49.457 74.1094 53.8047 74.1094 59.0547C74.1094 64.1875 72.5742 68.4648 69.5039 71.8867C66.457 75.2852 62.6133 76.9844 57.9727 76.9844C53.9648 76.9844 50.3789 75.3789 47.2148 72.168V94.6328ZM66.0234 59.0898C66.0234 55.8086 65.1328 53.1367 63.3516 51.0742C61.5469 48.9883 59.2734 47.9453 56.5312 47.9453C53.625 47.9453 51.2695 48.9531 49.4648 50.9688C47.6602 52.9844 46.7578 55.6328 46.7578 58.9141C46.7578 62.125 47.6602 64.7734 49.4648 66.8594C51.2461 68.8984 53.5898 69.918 56.4961 69.918C59.2383 69.918 61.5 68.8867 63.2812 66.8242C65.1094 64.7617 66.0234 62.1836 66.0234 59.0898ZM77.4844 80.5352H118.195V87.918H77.4844V80.5352ZM121.57 58.6328C121.57 53.6875 123.34 49.4805 126.879 46.0117C130.418 42.543 134.73 40.8086 139.816 40.8086C144.926 40.8086 149.262 42.5547 152.824 46.0469C156.34 49.5391 158.098 53.8281 158.098 58.9141C158.098 64.0469 156.328 68.3477 152.789 71.8164C149.227 75.2617 144.855 76.9844 139.676 76.9844C134.543 76.9844 130.242 75.2266 126.773 71.7109C123.305 68.2422 121.57 63.8828 121.57 58.6328ZM129.656 58.7734C129.656 62.1953 130.57 64.9023 132.398 66.8945C134.273 68.9102 136.746 69.918 139.816 69.918C142.91 69.918 145.383 68.9219 147.234 66.9297C149.086 64.9375 150.012 62.2773 150.012 58.9492C150.012 55.6211 149.086 52.9609 147.234 50.9688C145.359 48.9531 142.887 47.9453 139.816 47.9453C136.793 47.9453 134.344 48.9531 132.469 50.9688C130.594 52.9844 129.656 55.5859 129.656 58.7734ZM166.5 41.7578H174.445V44.9219C177.211 42.1797 180.328 40.8086 183.797 40.8086C187.781 40.8086 190.887 42.0625 193.113 44.5703C195.035 46.7031 195.996 50.1836 195.996 55.0117V76H188.051V56.875C188.051 53.5 187.582 51.168 186.645 49.8789C185.73 48.5664 184.066 47.9102 181.652 47.9102C179.027 47.9102 177.164 48.7773 176.062 50.5117C174.984 52.2227 174.445 55.2109 174.445 59.4766V76H166.5V41.7578Z" fill="black"/>
<circle cx="57" cy="58" r="4" fill="#28B1DD"/>
<circle cx="140" cy="58" r="4" fill="#28B1DD"/>
</svg>
